<?xml version="1.0" encoding="UTF-8"?>
<svg id="Ebene_1" xmlns="http://www.w3.org/2000/svg" xmlns:xlink="http://www.w3.org/1999/xlink" version="1.1" viewBox="0 0 1024 1024">
  <!-- Generator: Adobe Illustrator 29.2.1, SVG Export Plug-In . SVG Version: 2.1.0 Build 116)  -->
  <defs>
    <style>
      .st0 {
        fill: url(#Unbenannter_Verlauf_4);
      }

      .st1 {
        fill: url(#Unbenannter_Verlauf_3);
      }

      .st2 {
        fill: #9dc0f7;
      }
    </style>
    <linearGradient id="Unbenannter_Verlauf_3" data-name="Unbenannter Verlauf 3" x1="512.5" y1="627.2" x2="647.8" y2="779.5" gradientTransform="translate(-448 1600) scale(2 -2)" gradientUnits="userSpaceOnUse">
      <stop offset="0" stop-color="#add6f0"/>
      <stop offset="1" stop-color="#bfedf4"/>
    </linearGradient>
    <linearGradient id="Unbenannter_Verlauf_4" data-name="Unbenannter Verlauf 4" x1="419.1" y1="506.7" x2="534.8" y2="620.5" gradientTransform="translate(-448 1600) scale(2 -2)" gradientUnits="userSpaceOnUse">
      <stop offset="0" stop-color="#5e93f1"/>
      <stop offset="1" stop-color="#86c4f5"/>
    </linearGradient>
  </defs>
  <path class="st2" d="M554.3,758.2c-20.2-.4-39.7,1.1-59.4-5-36.1-11.2-47-36.9-90.8-37.4-70-.8-73,45.9-107.3,78.9-96.5,92.9-263.4-48.9-140.9-162.3,58.8-54.4,145.7-86.2,226.2-80.4,8.2.6,16.4,2.1,24.7,2.4h1.2c21,16.7,41,34.5,61.2,52.1,49.3,42.8,98.3,80.2,85.2,151.8Z"/>
  <path class="st1" d="M448.5,179.6c50-4.4,102.5-2.5,151.4,10,34.7,8.9,52.3,15.5,87.6,0,38.4-17,44.5-37,61.9-71,29.7-57.9,112.6-64.3,159.7-24.9,60.2,50.4,47.8,132.5.7,187.7-66.1,77.5-173.2,106-270.8,117.2-9.2-3-27.7-23.8-36.1-31l-61.1-52.7c-43.5-37.3-75.6-64.1-90.8-121.2-1.2-4.7-.9-9.5-2.4-14.2Z"/>
  <path class="st0" d="M448.5,179.6c1.5,4.6,1.2,9.5,2.4,14.2,15.2,57.1,47.3,83.9,90.8,121.2l61.1,52.7c8.4,7.2,26.9,28,36.1,31,41,46.3,82.4,56.9,99,130.6,22.8,101.4-47.1,196.1-146.1,221.1-12.4,3.1-25.1,4.9-37.6,7.8,13.1-71.6-35.8-109-85.2-151.8-20.2-17.5-40.3-35.4-61.2-52-53.1-51.5-104.8-73.4-121.8-154.7-23-110.4,58.4-199.4,162.4-220.1Z"/>
</svg>