<?xml version="1.0" encoding="UTF-8"?>
<svg id="Ebene_1" xmlns="http://www.w3.org/2000/svg" xmlns:xlink="http://www.w3.org/1999/xlink" version="1.1" viewBox="0 0 1024 1024">
  <!-- Generator: Adobe Illustrator 29.2.1, SVG Export Plug-In . SVG Version: 2.1.0 Build 116)  -->
  <defs>
    <style>
      .st0 {
        fill: #f7af50;
      }

      .st1 {
        fill: #f7b05a;
      }

      .st2 {
        fill: url(#Unbenannter_Verlauf_39);
      }

      .st3 {
        fill: url(#Unbenannter_Verlauf_40);
      }

      .st4 {
        fill: url(#Unbenannter_Verlauf_41);
      }

      .st5 {
        fill: url(#Unbenannter_Verlauf_38);
      }
    </style>
    <linearGradient id="Unbenannter_Verlauf_41" data-name="Unbenannter Verlauf 41" x1="616.6" y1="335.1" x2="630.6" y2="460.4" gradientTransform="translate(-448 1600) scale(2 -2)" gradientUnits="userSpaceOnUse">
      <stop offset="0" stop-color="#f49334"/>
      <stop offset="1" stop-color="#f1a16f"/>
    </linearGradient>
    <linearGradient id="Unbenannter_Verlauf_40" data-name="Unbenannter Verlauf 40" x1="279.8" y1="353" x2="369.2" y2="448.3" gradientTransform="translate(-448 1600) scale(2 -2)" gradientUnits="userSpaceOnUse">
      <stop offset="0" stop-color="#f7ac2c"/>
      <stop offset="1" stop-color="#f5af54"/>
    </linearGradient>
    <linearGradient id="Unbenannter_Verlauf_39" data-name="Unbenannter Verlauf 39" x1="529.1" y1="648.3" x2="632.6" y2="764.8" gradientTransform="translate(-448 1600) scale(2 -2)" gradientUnits="userSpaceOnUse">
      <stop offset="0" stop-color="#f0a662"/>
      <stop offset="1" stop-color="#f4a676"/>
    </linearGradient>
    <linearGradient id="Unbenannter_Verlauf_38" data-name="Unbenannter Verlauf 38" x1="457.7" y1="556.1" x2="546.2" y2="643.2" gradientTransform="translate(-448 1600) scale(2 -2)" gradientUnits="userSpaceOnUse">
      <stop offset="0" stop-color="#f19312"/>
      <stop offset="1" stop-color="#f59839"/>
    </linearGradient>
  </defs>
  <path class="st1" d="M641.1,752.8c12.2-.1,27.8-2.3,38.3,5.3,12.5,9.1,11.4,32.5-3,39.1-12.5,5.7-50.1,1.4-66.8,3.7-39.7,5.6-45.9,62.7-8.1,75.3,19.8,6.6,47.4-1.1,67.5,2.8,19.6,3.8,24.6,25.5,13.3,40-7.1,6.1-13.7,6.8-22.7,6.8h-32.4c-29.3,0-50.1-1.6-72.4-23.6-35-34.6-35.6-89.4-.6-124.2,26.8-26.7,51.7-25.3,86.8-25.3Z"/>
  <path class="st4" d="M740.3,670.6c30.2.7,28.1,22.7,28.1,46.3v43.1c28.3-13.6,60.5-11.4,84.6,10.3,30.2,27.1,25.8,63.7,25.9,100.2,0,12.9,3.8,37.4-6,47.6-8.5,9-24.9,10.6-34,1.7-9.8-9.7-6.9-24.7-6.9-37.1v-50.8c-2-31.1-31.8-46.5-53.7-26.1-12.8,12-10.1,29.2-10,45.1v39c.1,14.2.2,32.4-17.2,36-36.4,7.6-30.8-34.9-30.8-56.4v-138.4c0-19.5-6.6-55.3,19.8-60.5Z"/>
  <path class="st0" d="M416.5,752.8c24.6-2.3,49.6,6,67.5,23.1,32.2,30.8,27.8,62.2,28,101.9.2,45.5,1.1,48.1-42.1,48.1h-37.6c-23.8.2-42.6-1.5-62.4-16.6-61.9-47.3-33.6-146.4,46.7-156.5ZM419.8,800c-34.7,5.3-50,49.8-21,70.7,9.4,6.8,20.4,7.1,31.5,7.7h34.8v-24.1c0-30.1-10-56.7-45.3-54.2Z"/>
  <path class="st3" d="M150.8,669.6c20.5-1.6,74.2-1.4,90.9,2,30,6.1,53.1,30,59.5,59.8,5.4,25.4-2,44.1-15.5,65,25.7,35.8,23.6,78.2-8,110-25.7,23.4-44.7,19.4-74.8,19.4h-35c-15.2.2-31.6,2.2-37.8-16.3-3.1-9.3-1.7-43.3-1.7-55v-125.7c0-22.5-5.4-51.4,22.3-59.2ZM181.2,818.7l-2.2.3c-1,2.1-.3,52.4-.3,59.4h30.6c13.4,0,25.5,1.3,36.9-7,12.3-11.6,14.4-30.2,2.2-42.9-13.7-14.3-48.2-9.9-67.2-9.8ZM206.2,715.3h-27.5v57.2h50.2c29.8-3.4,36.7-36.4,15.9-51.7-11.4-8.3-25.4-5.4-38.6-5.5Z"/>
  <path class="st0" d="M592.9,618.9c-15.4-.3-30.4.9-45.4-3.8-27.6-8.5-35.9-28.2-69.4-28.6-53.5-.6-55.8,35.1-82,60.3-73.8,71-201.4-37.4-107.7-124.1,44.9-41.6,111.4-65.9,172.9-61.5,6.3.5,12.5,1.6,18.9,1.8h.9c16,12.7,31.4,26.4,46.8,39.8,37.7,32.7,75.2,61.3,65.1,116.1Z"/>
  <path class="st2" d="M512,176.5c38.2-3.4,78.4-1.9,115.7,7.7,26.5,6.8,40,11.9,67,0,29.4-13,34-28.3,47.3-54.3,22.7-44.3,86.1-49.2,122.2-19,46,38.6,36.5,101.3.5,143.6-50.5,59.3-132.5,81.1-207.1,89.6-7-2.3-21.2-18.2-27.6-23.7l-46.7-40.3c-33.3-28.5-57.8-49-69.5-92.7-.9-3.6-.7-7.3-1.9-10.8Z"/>
  <path class="st5" d="M512,176.5c1.2,3.5.9,7.3,1.9,10.8,11.6,43.6,36.2,64.1,69.5,92.7l46.7,40.3c6.4,5.5,20.6,21.4,27.6,23.7,31.4,35.4,63,43.5,75.7,99.9,17.4,77.5-36,150-111.7,169.1-9.5,2.4-19.2,3.8-28.7,6,10-54.7-27.4-83.4-65.1-116.1-15.4-13.4-30.8-27.1-46.8-39.8-40.6-39.4-80.2-56.1-93.1-118.3-17.6-84.4,44.6-152.5,124.2-168.3Z"/>
</svg>