<?xml version="1.0" encoding="utf-8" ?>
<svg xmlns="http://www.w3.org/2000/svg" xmlns:xlink="http://www.w3.org/1999/xlink" width="1024" height="1024">
	<path fill="#A7CAF7" transform="scale(2 2)" d="M320.562 376.389C326.654 376.325 334.478 375.259 339.731 379.059C345.997 383.591 345.445 395.294 338.239 398.607C332 401.476 313.188 399.284 304.832 400.46C284.986 403.254 281.877 431.788 300.774 438.118C310.694 441.44 324.484 437.55 334.51 439.5C344.292 441.402 346.793 452.226 341.177 459.505C337.621 462.538 334.339 462.884 329.851 462.923L313.651 462.919C299.002 462.93 288.577 462.144 277.46 451.134C259.973 433.816 259.648 406.441 277.172 389.028C290.582 375.701 303.008 376.362 320.562 376.389Z"/>
	<defs>
		<linearGradient id="gradient_0" gradientUnits="userSpaceOnUse" x1="392.39893" y1="464.9144" x2="406.37338" y2="339.61041">
			<stop offset="0" stop-color="#81C4F4"/>
			<stop offset="1" stop-color="#BBEAF1"/>
		</linearGradient>
	</defs>
	<path fill="url(#gradient_0)" transform="scale(2 2)" d="M370.163 335.299C385.269 335.653 384.226 346.637 384.226 358.474L384.217 380.007C398.368 373.196 414.459 374.328 426.52 385.158C441.6 398.699 439.417 417.019 439.476 435.246C439.497 441.696 441.374 453.928 436.48 459.07C432.216 463.549 424.016 464.387 419.472 459.909C414.568 455.076 416.045 447.561 416.043 441.339L416.046 415.938C415.028 400.406 400.142 392.685 389.217 402.881C382.797 408.873 384.189 417.494 384.201 425.445L384.243 444.928C384.253 452.017 384.312 461.112 375.625 462.932C357.428 466.743 360.247 445.476 360.239 434.716L360.245 365.527C360.235 355.771 356.964 337.857 370.163 335.299Z"/>
	<path fill="#9DC0F7" transform="scale(2 2)" d="M208.271 376.389C220.558 375.253 233.084 379.371 242.017 387.916C258.133 403.33 255.92 418.999 256.002 438.889C256.097 461.661 256.541 462.929 234.936 462.931L216.125 462.919C204.215 463.009 194.816 462.202 184.917 454.626C153.987 430.952 168.106 381.407 208.271 376.389ZM209.899 400.018C192.556 402.653 184.889 424.925 199.398 435.359C204.096 438.738 209.591 438.905 215.156 439.19L232.562 439.19L232.58 427.137C232.582 412.091 227.547 398.793 209.899 400.018Z"/>
	<defs>
		<linearGradient id="gradient_1" gradientUnits="userSpaceOnUse" x1="55.555264" y1="446.86594" x2="145.00577" y2="351.56">
			<stop offset="0" stop-color="#7993F7"/>
			<stop offset="1" stop-color="#A1C2F5"/>
		</linearGradient>
	</defs>
	<path fill="url(#gradient_1)" transform="scale(2 2)" d="M75.4065 334.777C85.6531 333.998 112.496 334.082 120.881 335.791C135.865 338.843 147.438 350.81 150.633 365.706C153.354 378.394 149.619 387.742 142.875 398.196C155.729 416.072 154.698 437.321 138.887 453.206C126.027 464.922 116.524 462.902 101.511 462.904L84.0011 462.944C76.3976 463.011 68.2057 463.989 65.0948 454.756C63.5312 450.116 64.2348 433.099 64.2329 427.235L64.2355 364.401C64.24 353.158 61.5494 338.687 75.4065 334.777ZM90.6092 409.342L89.5002 409.478C88.9762 410.506 89.3573 435.698 89.3568 439.19L104.668 439.225C111.36 439.238 117.433 439.831 123.118 435.69C129.286 429.892 130.297 420.585 124.219 414.257C117.366 407.123 100.125 409.322 90.6092 409.342ZM103.117 357.671L89.3568 357.671L89.3568 386.269L114.439 386.269C129.324 384.546 132.812 368.065 122.393 360.437C116.704 356.272 109.705 357.76 103.117 357.671Z"/>
	<path fill="#9DC0F7" transform="scale(2 2)" d="M296.431 309.453C288.707 309.297 281.254 309.88 273.717 307.549C259.913 303.28 255.743 293.455 239.012 293.253C212.257 292.931 211.088 310.799 197.999 323.404C161.111 358.929 97.3004 304.713 144.134 261.341C166.608 240.528 199.844 228.389 230.599 230.604C233.752 230.831 236.861 231.416 240.027 231.522L240.469 231.535C248.48 237.888 256.15 244.729 263.874 251.426C282.728 267.774 301.453 282.079 296.431 309.453Z"/>
	<defs>
		<linearGradient id="gradient_2" gradientUnits="userSpaceOnUse" x1="305.06128" y1="151.68938" x2="408.57736" y2="35.211658">
			<stop offset="0" stop-color="#ADD6F0"/>
			<stop offset="1" stop-color="#BFEDF4"/>
		</linearGradient>
	</defs>
	<path fill="url(#gradient_2)" transform="scale(2 2)" d="M256.001 88.2366C275.124 86.5391 295.181 87.2829 313.871 92.0728C327.129 95.4709 333.869 98.0123 347.366 92.042C362.062 85.5413 364.364 77.8824 371.024 64.9043C382.381 42.7757 414.079 40.3016 432.1 55.3963C455.117 74.675 450.37 106.039 432.352 127.173C407.094 156.8 366.126 167.7 328.818 171.991C325.31 170.854 318.221 162.906 315.01 160.135L291.657 139.989C275.024 125.721 262.74 115.467 256.931 93.6506C256.457 91.8693 256.586 90.0042 256.001 88.2366Z"/>
	<defs>
		<linearGradient id="gradient_3" gradientUnits="userSpaceOnUse" x1="233.52068" y1="243.68553" x2="322.02826" y2="156.66551">
			<stop offset="0" stop-color="#5E93F1"/>
			<stop offset="1" stop-color="#86C4F5"/>
		</linearGradient>
	</defs>
	<path fill="url(#gradient_3)" transform="scale(2 2)" d="M256.001 88.2366C256.586 90.0042 256.457 91.8693 256.931 93.6506C262.74 115.467 275.024 125.721 291.657 139.989L315.01 160.135C318.221 162.906 325.31 170.854 328.818 171.991C344.512 189.706 360.331 193.741 366.657 221.936C375.356 260.704 348.643 296.915 310.796 306.463C306.04 307.663 301.199 308.353 296.431 309.453C301.453 282.079 282.728 267.774 263.874 251.426C256.15 244.729 248.48 237.888 240.469 231.535C220.167 211.84 200.382 203.473 193.909 172.393C185.117 130.172 216.219 96.1658 256.001 88.2366Z"/>
</svg>
